<svg width="243" height="78" viewBox="0 0 243 78" fill="none" xmlns="http://www.w3.org/2000/svg">
<g filter="url(#filter0_dd_102_20)">
<g clip-path="url(#clip0_102_20)">
<rect x="11" y="7" width="221" height="56" rx="16" fill="#633B48"/>
<path d="M63.857 40H61.7311L61.7447 38.6396H63.857C64.4723 38.6396 64.9872 38.5052 65.402 38.2363C65.8212 37.9674 66.1357 37.5824 66.3453 37.0811C66.5595 36.5798 66.6666 35.9827 66.6666 35.29V34.75C66.6666 34.2122 66.6051 33.736 66.482 33.3213C66.3635 32.9066 66.1858 32.5579 65.9488 32.2754C65.7164 31.9928 65.4293 31.7786 65.0875 31.6328C64.7503 31.487 64.3606 31.4141 63.9186 31.4141H61.69V30.0469H63.9186C64.5794 30.0469 65.1832 30.1585 65.7301 30.3818C66.277 30.6006 66.7486 30.9173 67.1451 31.332C67.5462 31.7467 67.8538 32.2435 68.068 32.8223C68.2822 33.401 68.3893 34.0482 68.3893 34.7637V35.29C68.3893 36.0055 68.2822 36.6527 68.068 37.2314C67.8538 37.8102 67.5462 38.307 67.1451 38.7217C66.7441 39.1318 66.2656 39.4486 65.7096 39.6719C65.1581 39.8906 64.5406 40 63.857 40ZM62.6813 30.0469V40H60.9654V30.0469H62.6813ZM69.7334 36.3838V36.2266C69.7334 35.6934 69.8109 35.1989 69.9658 34.7432C70.1208 34.2829 70.3441 33.8841 70.6357 33.5469C70.932 33.2051 71.292 32.9408 71.7158 32.7539C72.1442 32.5625 72.6273 32.4668 73.165 32.4668C73.7074 32.4668 74.1904 32.5625 74.6143 32.7539C75.0426 32.9408 75.4049 33.2051 75.7012 33.5469C75.9974 33.8841 76.223 34.2829 76.3779 34.7432C76.5329 35.1989 76.6104 35.6934 76.6104 36.2266V36.3838C76.6104 36.917 76.5329 37.4115 76.3779 37.8672C76.223 38.3229 75.9974 38.7217 75.7012 39.0635C75.4049 39.4007 75.0449 39.665 74.6211 39.8564C74.1973 40.0433 73.7165 40.1367 73.1787 40.1367C72.6364 40.1367 72.151 40.0433 71.7227 39.8564C71.2988 39.665 70.9388 39.4007 70.6426 39.0635C70.3464 38.7217 70.1208 38.3229 69.9658 37.8672C69.8109 37.4115 69.7334 36.917 69.7334 36.3838ZM71.3809 36.2266V36.3838C71.3809 36.7165 71.415 37.0309 71.4834 37.3271C71.5518 37.6234 71.6589 37.8831 71.8047 38.1064C71.9505 38.3298 72.1374 38.5052 72.3652 38.6328C72.5931 38.7604 72.8643 38.8242 73.1787 38.8242C73.4841 38.8242 73.7484 38.7604 73.9717 38.6328C74.1995 38.5052 74.3864 38.3298 74.5322 38.1064C74.6781 37.8831 74.7852 37.6234 74.8535 37.3271C74.9264 37.0309 74.9629 36.7165 74.9629 36.3838V36.2266C74.9629 35.8984 74.9264 35.5885 74.8535 35.2969C74.7852 35.0007 74.6758 34.7386 74.5254 34.5107C74.3796 34.2829 74.1927 34.1051 73.9648 33.9775C73.7415 33.8454 73.4749 33.7793 73.165 33.7793C72.8551 33.7793 72.5863 33.8454 72.3584 33.9775C72.1351 34.1051 71.9505 34.2829 71.8047 34.5107C71.6589 34.7386 71.5518 35.0007 71.4834 35.2969C71.415 35.5885 71.3809 35.8984 71.3809 36.2266ZM80.101 38.3594L81.81 32.6035H82.8627L82.5756 34.3262L80.8529 40H79.9096L80.101 38.3594ZM79.0961 32.6035L80.4291 38.3867L80.5385 40H79.4857L77.4828 32.6035H79.0961ZM84.4623 38.3184L85.7543 32.6035H87.3607L85.3647 40H84.3119L84.4623 38.3184ZM83.0404 32.6035L84.7289 38.291L84.9408 40H83.9975L82.2543 34.3193L81.9672 32.6035H83.0404ZM90.2156 34.1826V40H88.5682V32.6035H90.1199L90.2156 34.1826ZM89.9217 36.0283L89.3885 36.0215C89.393 35.4974 89.466 35.0166 89.6072 34.5791C89.7531 34.1416 89.9536 33.7656 90.2088 33.4512C90.4686 33.1367 90.7785 32.8952 91.1385 32.7266C91.4985 32.5534 91.8995 32.4668 92.3416 32.4668C92.6971 32.4668 93.0184 32.5169 93.3055 32.6172C93.5971 32.7129 93.8455 32.8701 94.0506 33.0889C94.2602 33.3076 94.4197 33.5924 94.5291 33.9434C94.6385 34.2897 94.6932 34.7158 94.6932 35.2217V40H93.0389V35.2148C93.0389 34.8594 92.9865 34.5791 92.8816 34.374C92.7814 34.1644 92.6333 34.0163 92.4373 33.9297C92.2459 33.8385 92.0066 33.793 91.7195 33.793C91.437 33.793 91.1841 33.8522 90.9607 33.9707C90.7374 34.0892 90.5483 34.251 90.3934 34.4561C90.243 34.6611 90.1268 34.8981 90.0447 35.167C89.9627 35.4359 89.9217 35.723 89.9217 36.0283ZM98.2385 29.5V40H96.5842V29.5H98.2385ZM99.8287 36.3838V36.2266C99.8287 35.6934 99.9062 35.1989 100.061 34.7432C100.216 34.2829 100.439 33.8841 100.731 33.5469C101.027 33.2051 101.387 32.9408 101.811 32.7539C102.24 32.5625 102.723 32.4668 103.26 32.4668C103.803 32.4668 104.286 32.5625 104.71 32.7539C105.138 32.9408 105.5 33.2051 105.796 33.5469C106.093 33.8841 106.318 34.2829 106.473 34.7432C106.628 35.1989 106.706 35.6934 106.706 36.2266V36.3838C106.706 36.917 106.628 37.4115 106.473 37.8672C106.318 38.3229 106.093 38.7217 105.796 39.0635C105.5 39.4007 105.14 39.665 104.716 39.8564C104.293 40.0433 103.812 40.1367 103.274 40.1367C102.732 40.1367 102.246 40.0433 101.818 39.8564C101.394 39.665 101.034 39.4007 100.738 39.0635C100.442 38.7217 100.216 38.3229 100.061 37.8672C99.9062 37.4115 99.8287 36.917 99.8287 36.3838ZM101.476 36.2266V36.3838C101.476 36.7165 101.51 37.0309 101.579 37.3271C101.647 37.6234 101.754 37.8831 101.9 38.1064C102.046 38.3298 102.233 38.5052 102.461 38.6328C102.688 38.7604 102.96 38.8242 103.274 38.8242C103.579 38.8242 103.844 38.7604 104.067 38.6328C104.295 38.5052 104.482 38.3298 104.628 38.1064C104.773 37.8831 104.88 37.6234 104.949 37.3271C105.022 37.0309 105.058 36.7165 105.058 36.3838V36.2266C105.058 35.8984 105.022 35.5885 104.949 35.2969C104.88 35.0007 104.771 34.7386 104.621 34.5107C104.475 34.2829 104.288 34.1051 104.06 33.9775C103.837 33.8454 103.57 33.7793 103.26 33.7793C102.95 33.7793 102.682 33.8454 102.454 33.9775C102.23 34.1051 102.046 34.2829 101.9 34.5107C101.754 34.7386 101.647 35.0007 101.579 35.2969C101.51 35.5885 101.476 35.8984 101.476 36.2266ZM112.356 38.5166V34.9893C112.356 34.7249 112.309 34.4971 112.213 34.3057C112.117 34.1143 111.971 33.9661 111.775 33.8613C111.584 33.7565 111.342 33.7041 111.051 33.7041C110.782 33.7041 110.549 33.7497 110.354 33.8408C110.158 33.932 110.005 34.055 109.896 34.21C109.786 34.3649 109.731 34.5404 109.731 34.7363H108.091C108.091 34.4447 108.161 34.1621 108.303 33.8887C108.444 33.6152 108.649 33.3714 108.918 33.1572C109.187 32.943 109.508 32.7744 109.882 32.6514C110.256 32.5283 110.675 32.4668 111.14 32.4668C111.696 32.4668 112.188 32.5602 112.616 32.7471C113.049 32.9339 113.389 33.2165 113.635 33.5947C113.885 33.9684 114.011 34.4378 114.011 35.0029V38.291C114.011 38.6283 114.034 38.9313 114.079 39.2002C114.129 39.4645 114.2 39.6947 114.291 39.8906V40H112.603C112.525 39.8223 112.464 39.5967 112.418 39.3232C112.377 39.0452 112.356 38.7764 112.356 38.5166ZM112.596 35.502L112.609 36.5205H111.427C111.121 36.5205 110.853 36.5501 110.62 36.6094C110.388 36.6641 110.194 36.7461 110.039 36.8555C109.884 36.9648 109.768 37.097 109.69 37.252C109.613 37.4069 109.574 37.5824 109.574 37.7783C109.574 37.9743 109.62 38.1543 109.711 38.3184C109.802 38.4779 109.934 38.6032 110.107 38.6943C110.285 38.7855 110.499 38.8311 110.75 38.8311C111.087 38.8311 111.381 38.7627 111.632 38.626C111.887 38.4847 112.088 38.3138 112.233 38.1133C112.379 37.9082 112.457 37.7145 112.466 37.5322L112.999 38.2637C112.944 38.4505 112.851 38.651 112.719 38.8652C112.587 39.0794 112.413 39.2845 112.199 39.4805C111.99 39.6719 111.737 39.8291 111.44 39.9521C111.149 40.0752 110.812 40.1367 110.429 40.1367C109.946 40.1367 109.515 40.041 109.137 39.8496C108.758 39.6536 108.462 39.3916 108.248 39.0635C108.034 38.7308 107.927 38.3548 107.927 37.9355C107.927 37.5436 108 37.1973 108.146 36.8965C108.296 36.5911 108.515 36.3359 108.802 36.1309C109.093 35.9258 109.449 35.7708 109.868 35.666C110.287 35.5566 110.766 35.502 111.304 35.502H112.596ZM120.345 38.4688V29.5H121.999V40H120.502L120.345 38.4688ZM115.533 36.3838V36.2402C115.533 35.6797 115.599 35.1693 115.731 34.709C115.863 34.2441 116.054 33.8454 116.305 33.5127C116.556 33.1755 116.861 32.918 117.221 32.7402C117.581 32.5579 117.987 32.4668 118.438 32.4668C118.885 32.4668 119.276 32.5534 119.614 32.7266C119.951 32.8997 120.238 33.1481 120.475 33.4717C120.712 33.7907 120.901 34.1735 121.042 34.6201C121.184 35.0622 121.284 35.5544 121.343 36.0967V36.5547C121.284 37.0833 121.184 37.5664 121.042 38.0039C120.901 38.4414 120.712 38.8197 120.475 39.1387C120.238 39.4577 119.949 39.7038 119.607 39.877C119.27 40.0501 118.875 40.1367 118.424 40.1367C117.978 40.1367 117.574 40.0433 117.214 39.8564C116.859 39.6696 116.556 39.4076 116.305 39.0703C116.054 38.7331 115.863 38.3366 115.731 37.8809C115.599 37.4206 115.533 36.9215 115.533 36.3838ZM117.18 36.2402V36.3838C117.18 36.721 117.21 37.0355 117.269 37.3271C117.333 37.6188 117.431 37.8763 117.563 38.0996C117.695 38.3184 117.866 38.4915 118.076 38.6191C118.29 38.7422 118.545 38.8037 118.841 38.8037C119.215 38.8037 119.523 38.7217 119.764 38.5576C120.006 38.3936 120.195 38.1725 120.331 37.8945C120.473 37.612 120.568 37.2975 120.619 36.9512V35.7139C120.591 35.445 120.534 35.1943 120.448 34.9619C120.366 34.7295 120.254 34.5267 120.113 34.3535C119.971 34.1758 119.796 34.0391 119.586 33.9434C119.381 33.8431 119.137 33.793 118.855 33.793C118.554 33.793 118.299 33.8568 118.089 33.9844C117.88 34.112 117.706 34.2874 117.57 34.5107C117.438 34.734 117.34 34.9938 117.276 35.29C117.212 35.5863 117.18 35.903 117.18 36.2402ZM131.448 31.373L128.475 40H126.677L130.423 30.0469H131.571L131.448 31.373ZM133.937 40L130.956 31.373L130.826 30.0469H131.982L135.741 40H133.937ZM133.793 36.3086V37.6689H128.379V36.3086H133.793ZM138.446 34.0117V40H136.798V32.6035H138.371L138.446 34.0117ZM140.709 32.5557L140.695 34.0869C140.595 34.0687 140.485 34.055 140.367 34.0459C140.253 34.0368 140.139 34.0322 140.025 34.0322C139.742 34.0322 139.494 34.0732 139.28 34.1553C139.066 34.2327 138.886 34.3467 138.74 34.4971C138.599 34.6429 138.489 34.8206 138.412 35.0303C138.334 35.2399 138.289 35.4746 138.275 35.7344L137.899 35.7617C137.899 35.2969 137.945 34.8662 138.036 34.4697C138.127 34.0732 138.264 33.7246 138.446 33.4238C138.633 33.123 138.865 32.8883 139.143 32.7197C139.426 32.5511 139.752 32.4668 140.121 32.4668C140.221 32.4668 140.328 32.4759 140.442 32.4941C140.56 32.5124 140.649 32.5329 140.709 32.5557ZM143.311 30.0469L145.423 33.6768L147.535 30.0469H149.511L146.503 34.9756L149.586 40H147.59L145.423 36.3018L143.256 40H141.253L144.343 34.9756L141.328 30.0469H143.311ZM152.55 32.6035V40H150.896V32.6035H152.55ZM150.787 30.6621C150.787 30.4115 150.869 30.2041 151.033 30.04C151.201 29.8714 151.434 29.7871 151.73 29.7871C152.022 29.7871 152.252 29.8714 152.42 30.04C152.589 30.2041 152.673 30.4115 152.673 30.6621C152.673 30.9082 152.589 31.1133 152.42 31.2773C152.252 31.4414 152.022 31.5234 151.73 31.5234C151.434 31.5234 151.201 31.4414 151.033 31.2773C150.869 31.1133 150.787 30.9082 150.787 30.6621ZM156.861 38.6943L158.673 32.6035H160.382L157.811 40H156.745L156.861 38.6943ZM155.473 32.6035L157.319 38.7217L157.408 40H156.342L153.758 32.6035H155.473ZM169.031 36.2881H166.44V34.9277H169.031C169.482 34.9277 169.847 34.8548 170.125 34.709C170.403 34.5632 170.605 34.3626 170.733 34.1074C170.865 33.8477 170.931 33.5514 170.931 33.2188C170.931 32.9043 170.865 32.6104 170.733 32.3369C170.605 32.0589 170.403 31.8356 170.125 31.667C169.847 31.4984 169.482 31.4141 169.031 31.4141H166.966V40H165.251V30.0469H169.031C169.801 30.0469 170.455 30.1836 170.993 30.457C171.535 30.7259 171.948 31.0996 172.23 31.5781C172.513 32.0521 172.654 32.5944 172.654 33.2051C172.654 33.8477 172.513 34.3991 172.23 34.8594C171.948 35.3197 171.535 35.6729 170.993 35.9189C170.455 36.165 169.801 36.2881 169.031 36.2881ZM175.782 34.0117V40H174.135V32.6035H175.707L175.782 34.0117ZM178.045 32.5557L178.031 34.0869C177.931 34.0687 177.822 34.055 177.703 34.0459C177.589 34.0368 177.475 34.0322 177.361 34.0322C177.079 34.0322 176.83 34.0732 176.616 34.1553C176.402 34.2327 176.222 34.3467 176.076 34.4971C175.935 34.6429 175.826 34.8206 175.748 35.0303C175.671 35.2399 175.625 35.4746 175.611 35.7344L175.235 35.7617C175.235 35.2969 175.281 34.8662 175.372 34.4697C175.463 34.0732 175.6 33.7246 175.782 33.4238C175.969 33.123 176.201 32.8883 176.479 32.7197C176.762 32.5511 177.088 32.4668 177.457 32.4668C177.557 32.4668 177.664 32.4759 177.778 32.4941C177.897 32.5124 177.986 32.5329 178.045 32.5557ZM182.301 40.1367C181.754 40.1367 181.26 40.0479 180.818 39.8701C180.38 39.6878 180.007 39.4349 179.697 39.1113C179.391 38.7878 179.157 38.4072 178.993 37.9697C178.829 37.5322 178.746 37.0605 178.746 36.5547V36.2812C178.746 35.7025 178.831 35.1784 178.999 34.709C179.168 34.2396 179.403 33.8385 179.704 33.5059C180.004 33.1686 180.36 32.9111 180.77 32.7334C181.18 32.5557 181.624 32.4668 182.103 32.4668C182.632 32.4668 183.094 32.5557 183.491 32.7334C183.887 32.9111 184.215 33.1618 184.475 33.4854C184.739 33.8044 184.935 34.1849 185.063 34.627C185.195 35.069 185.261 35.5566 185.261 36.0898V36.7939H179.546V35.6113H183.634V35.4814C183.625 35.1852 183.566 34.9072 183.456 34.6475C183.352 34.3877 183.19 34.1781 182.971 34.0186C182.752 33.859 182.461 33.7793 182.096 33.7793C181.823 33.7793 181.579 33.8385 181.365 33.957C181.155 34.071 180.98 34.2373 180.838 34.4561C180.697 34.6748 180.588 34.9391 180.51 35.249C180.437 35.5544 180.401 35.8984 180.401 36.2812V36.5547C180.401 36.8783 180.444 37.179 180.531 37.457C180.622 37.7305 180.754 37.9697 180.927 38.1748C181.1 38.3799 181.31 38.5417 181.556 38.6602C181.802 38.7741 182.082 38.8311 182.397 38.8311C182.793 38.8311 183.147 38.7513 183.456 38.5918C183.766 38.4323 184.035 38.2067 184.263 37.915L185.131 38.7559C184.972 38.9883 184.764 39.2116 184.509 39.4258C184.254 39.6354 183.942 39.8063 183.573 39.9385C183.208 40.0706 182.784 40.1367 182.301 40.1367ZM188.301 34.0254V42.8438H186.653V32.6035H188.171L188.301 34.0254ZM193.12 36.2334V36.377C193.12 36.9147 193.056 37.4137 192.929 37.874C192.805 38.3298 192.621 38.7285 192.375 39.0703C192.133 39.4076 191.835 39.6696 191.479 39.8564C191.124 40.0433 190.714 40.1367 190.249 40.1367C189.789 40.1367 189.385 40.0524 189.039 39.8838C188.697 39.7106 188.408 39.4668 188.171 39.1523C187.934 38.8379 187.742 38.4688 187.596 38.0449C187.455 37.6165 187.355 37.1471 187.296 36.6367V36.083C187.355 35.5407 187.455 35.0485 187.596 34.6064C187.742 34.1644 187.934 33.7839 188.171 33.4648C188.408 33.1458 188.697 32.8997 189.039 32.7266C189.381 32.5534 189.779 32.4668 190.235 32.4668C190.7 32.4668 191.112 32.5579 191.472 32.7402C191.832 32.918 192.136 33.1732 192.382 33.5059C192.628 33.834 192.812 34.2305 192.935 34.6953C193.058 35.1556 193.12 35.6683 193.12 36.2334ZM191.472 36.377V36.2334C191.472 35.8916 191.441 35.5749 191.377 35.2832C191.313 34.987 191.213 34.7272 191.076 34.5039C190.939 34.2806 190.764 34.1074 190.55 33.9844C190.34 33.8568 190.087 33.793 189.791 33.793C189.499 33.793 189.249 33.8431 189.039 33.9434C188.829 34.0391 188.654 34.1735 188.513 34.3467C188.371 34.5199 188.262 34.7227 188.184 34.9551C188.107 35.1829 188.052 35.4313 188.02 35.7002V37.0264C188.075 37.3545 188.168 37.6553 188.301 37.9287C188.433 38.2021 188.62 38.4209 188.861 38.585C189.107 38.7445 189.422 38.8242 189.804 38.8242C190.101 38.8242 190.354 38.7604 190.563 38.6328C190.773 38.5052 190.944 38.3298 191.076 38.1064C191.213 37.8786 191.313 37.6165 191.377 37.3203C191.441 37.0241 191.472 36.7096 191.472 36.377ZM196.276 34.0117V40H194.628V32.6035H196.2L196.276 34.0117ZM198.538 32.5557L198.525 34.0869C198.424 34.0687 198.315 34.055 198.196 34.0459C198.083 34.0368 197.969 34.0322 197.855 34.0322C197.572 34.0322 197.324 34.0732 197.11 34.1553C196.895 34.2327 196.715 34.3467 196.57 34.4971C196.428 34.6429 196.319 34.8206 196.241 35.0303C196.164 35.2399 196.118 35.4746 196.105 35.7344L195.729 35.7617C195.729 35.2969 195.774 34.8662 195.865 34.4697C195.957 34.0732 196.093 33.7246 196.276 33.4238C196.462 33.123 196.695 32.8883 196.973 32.7197C197.255 32.5511 197.581 32.4668 197.95 32.4668C198.051 32.4668 198.158 32.4759 198.272 32.4941C198.39 32.5124 198.479 32.5329 198.538 32.5557ZM201.434 32.6035V40H199.78V32.6035H201.434ZM199.671 30.6621C199.671 30.4115 199.753 30.2041 199.917 30.04C200.085 29.8714 200.318 29.7871 200.614 29.7871C200.906 29.7871 201.136 29.8714 201.304 30.04C201.473 30.2041 201.557 30.4115 201.557 30.6621C201.557 30.9082 201.473 31.1133 201.304 31.2773C201.136 31.4414 200.906 31.5234 200.614 31.5234C200.318 31.5234 200.085 31.4414 199.917 31.2773C199.753 31.1133 199.671 30.9082 199.671 30.6621ZM204.973 34.1826V40H203.325V32.6035H204.877L204.973 34.1826ZM204.679 36.0283L204.146 36.0215C204.15 35.4974 204.223 35.0166 204.364 34.5791C204.51 34.1416 204.711 33.7656 204.966 33.4512C205.226 33.1367 205.535 32.8952 205.896 32.7266C206.256 32.5534 206.657 32.4668 207.099 32.4668C207.454 32.4668 207.775 32.5169 208.062 32.6172C208.354 32.7129 208.603 32.8701 208.808 33.0889C209.017 33.3076 209.177 33.5924 209.286 33.9434C209.396 34.2897 209.45 34.7158 209.45 35.2217V40H207.796V35.2148C207.796 34.8594 207.743 34.5791 207.639 34.374C207.538 34.1644 207.39 34.0163 207.194 33.9297C207.003 33.8385 206.764 33.793 206.477 33.793C206.194 33.793 205.941 33.8522 205.718 33.9707C205.494 34.0892 205.305 34.251 205.15 34.4561C205 34.6611 204.884 34.8981 204.802 35.167C204.72 35.4359 204.679 35.723 204.679 36.0283ZM214.622 32.6035V33.8066H210.453V32.6035H214.622ZM211.656 30.792H213.303V37.9561C213.303 38.1839 213.335 38.3594 213.399 38.4824C213.467 38.6009 213.561 38.6807 213.679 38.7217C213.798 38.7627 213.937 38.7832 214.096 38.7832C214.21 38.7832 214.319 38.7764 214.424 38.7627C214.529 38.749 214.613 38.7354 214.677 38.7217L214.684 39.9795C214.547 40.0205 214.388 40.057 214.205 40.0889C214.028 40.1208 213.823 40.1367 213.59 40.1367C213.212 40.1367 212.877 40.0706 212.585 39.9385C212.294 39.8018 212.066 39.5807 211.902 39.2754C211.738 38.9701 211.656 38.5645 211.656 38.0586V30.792Z" fill="#FFD8E4"/>
</g>
</g>
<path d="M30.9184 23.3753C30.4933 23.3655 30.105 23.615 29.9373 24.0056C29.7778 24.3886 29.8924 24.6571 30.2423 25.1583C30.7549 25.9125 35.9694 32.1742 35.9694 32.1742L34.8154 33.2541C33.8432 34.2261 33.8014 35.5307 34.7057 36.4347L36.0493 37.7144L32.3004 42.3191C32.0093 42.6292 31.8292 43.1733 31.9917 43.5638C32.1573 43.966 32.551 44.2271 32.9859 44.2228C33.2645 44.2158 33.526 44.0866 33.7007 43.8696L38.1596 39.7241L45.0311 46.2682C45.2632 46.4923 45.5719 46.6199 45.8945 46.625C46.011 46.6247 46.1268 46.6072 46.2383 46.5731C46.6582 46.4419 46.983 46.1068 47.1008 45.6829C47.1953 45.2852 47.0807 44.8667 46.797 44.5725L40.7603 37.306L41.8413 36.3008C42.6475 35.5741 42.6518 34.3107 41.8506 33.5785L40.6666 32.4428L44.754 27.6153L44.7594 27.609L44.7642 27.6025C45.1295 27.128 45.3041 26.7625 45.1158 26.2991C44.8881 25.8654 44.4839 25.5515 44.0074 25.438C43.9582 25.4314 43.9086 25.4281 43.859 25.4281L43.8587 25.4289C43.5369 25.4486 43.2331 25.5837 43.0031 25.8097L42.9936 25.8175L42.9847 25.8255L38.247 30.1215L31.7154 23.8556C31.7154 23.8556 31.3279 23.385 30.9184 23.3753ZM43.8587 25.7759C43.8935 25.7761 43.9283 25.7783 43.9627 25.7829C44.3146 25.8797 44.6134 26.1127 44.7933 26.4302C44.8986 26.6891 44.8662 26.8994 44.4884 27.3904L40.4153 32.2016L38.499 30.3632L43.2184 26.0833C43.3884 25.9078 43.6155 25.7991 43.8587 25.7769L43.8587 25.7759ZM36.2067 32.4278L46.5246 44.7908C46.7271 45.0444 46.8537 45.298 46.7674 45.5837C46.6831 45.8963 46.4452 46.1444 46.1364 46.2417C46.0578 46.266 45.9762 46.2783 45.894 46.2785C45.6609 46.2729 45.4385 46.1799 45.2709 46.0178L34.9513 36.1885C34.1396 35.3768 34.2623 34.298 35.0525 33.5079L36.2067 32.4278Z" fill="#FFD8E4"/>
<defs>
<filter id="filter0_dd_102_20" x="0" y="0" width="243" height="78" filterUnits="userSpaceOnUse" color-interpolation-filters="sRGB">
<feFlood flood-opacity="0" result="BackgroundImageFix"/>
<feColorMatrix in="SourceAlpha" type="matrix" values="0 0 0 0 0 0 0 0 0 0 0 0 0 0 0 0 0 0 127 0" result="hardAlpha"/>
<feOffset dy="1"/>
<feGaussianBlur stdDeviation="1.5"/>
<feColorMatrix type="matrix" values="0 0 0 0 0 0 0 0 0 0 0 0 0 0 0 0 0 0 0.3 0"/>
<feBlend mode="normal" in2="BackgroundImageFix" result="effect1_dropShadow_102_20"/>
<feColorMatrix in="SourceAlpha" type="matrix" values="0 0 0 0 0 0 0 0 0 0 0 0 0 0 0 0 0 0 127 0" result="hardAlpha"/>
<feMorphology radius="3" operator="dilate" in="SourceAlpha" result="effect2_dropShadow_102_20"/>
<feOffset dy="4"/>
<feGaussianBlur stdDeviation="4"/>
<feColorMatrix type="matrix" values="0 0 0 0 0 0 0 0 0 0 0 0 0 0 0 0 0 0 0.15 0"/>
<feBlend mode="normal" in2="effect1_dropShadow_102_20" result="effect2_dropShadow_102_20"/>
<feBlend mode="normal" in="SourceGraphic" in2="effect2_dropShadow_102_20" result="shape"/>
</filter>
<clipPath id="clip0_102_20">
<rect x="11" y="7" width="221" height="56" rx="16" fill="white"/>
</clipPath>
</defs>
</svg>
