<svg width="243" height="78" viewBox="0 0 243 78" fill="none" xmlns="http://www.w3.org/2000/svg">
<g filter="url(#filter0_dd_103_3)">
<rect x="11" y="7" width="221" height="56" rx="16" fill="#017374"/>
<path d="M75.0676 37.4365C75.0676 37.2314 75.0357 37.0492 74.9719 36.8896C74.9126 36.7301 74.8055 36.5843 74.6506 36.4521C74.4956 36.32 74.2769 36.1924 73.9943 36.0693C73.7163 35.9417 73.3609 35.8118 72.9279 35.6797C72.454 35.5339 72.0165 35.3721 71.6154 35.1943C71.2189 35.012 70.8726 34.8024 70.5764 34.5654C70.2801 34.3239 70.05 34.0482 69.8859 33.7383C69.7219 33.4238 69.6398 33.0615 69.6398 32.6514C69.6398 32.2458 69.7242 31.8766 69.8928 31.5439C70.066 31.2113 70.3098 30.9242 70.6242 30.6826C70.9432 30.4365 71.3192 30.2474 71.7522 30.1152C72.1851 29.9785 72.6636 29.9102 73.1877 29.9102C73.926 29.9102 74.5617 30.0469 75.0949 30.3203C75.6327 30.5938 76.0451 30.9606 76.3322 31.4209C76.6239 31.8812 76.7697 32.3893 76.7697 32.9453H75.0676C75.0676 32.6172 74.9969 32.3278 74.8557 32.0771C74.7189 31.8219 74.5093 31.6214 74.2268 31.4756C73.9488 31.3298 73.5956 31.2568 73.1672 31.2568C72.7616 31.2568 72.4244 31.3184 72.1555 31.4414C71.8866 31.5645 71.6861 31.7308 71.5539 31.9404C71.4217 32.1501 71.3557 32.387 71.3557 32.6514C71.3557 32.8382 71.399 33.0091 71.4855 33.1641C71.5721 33.3145 71.7043 33.4557 71.882 33.5879C72.0598 33.7155 72.2831 33.8363 72.552 33.9502C72.8208 34.0641 73.1376 34.1735 73.5022 34.2783C74.0536 34.4424 74.5344 34.6247 74.9445 34.8252C75.3547 35.0212 75.6965 35.2445 75.9699 35.4951C76.2434 35.7458 76.4484 36.0306 76.5852 36.3496C76.7219 36.6641 76.7902 37.0218 76.7902 37.4229C76.7902 37.8421 76.7059 38.2204 76.5373 38.5576C76.3687 38.8903 76.1272 39.1751 75.8127 39.4121C75.5028 39.6445 75.1291 39.8245 74.6916 39.9521C74.2587 40.0752 73.7756 40.1367 73.2424 40.1367C72.7639 40.1367 72.2922 40.0729 71.8273 39.9453C71.3671 39.8177 70.9478 39.624 70.5695 39.3643C70.1913 39.0999 69.8905 38.7718 69.6672 38.3799C69.4439 37.9834 69.3322 37.5208 69.3322 36.9922H71.048C71.048 37.3158 71.1027 37.5915 71.2121 37.8193C71.326 38.0472 71.4833 38.234 71.6838 38.3799C71.8843 38.5212 72.1167 38.626 72.3811 38.6943C72.6499 38.7627 72.937 38.7969 73.2424 38.7969C73.6434 38.7969 73.9784 38.7399 74.2473 38.626C74.5207 38.512 74.7258 38.3525 74.8625 38.1475C74.9992 37.9424 75.0676 37.7054 75.0676 37.4365ZM81.5045 40.1367C80.9576 40.1367 80.4632 40.0479 80.0211 39.8701C79.5836 39.6878 79.2099 39.4349 78.9 39.1113C78.5947 38.7878 78.36 38.4072 78.1959 37.9697C78.0318 37.5322 77.9498 37.0605 77.9498 36.5547V36.2812C77.9498 35.7025 78.0341 35.1784 78.2027 34.709C78.3714 34.2396 78.6061 33.8385 78.9068 33.5059C79.2076 33.1686 79.5631 32.9111 79.9732 32.7334C80.3834 32.5557 80.8277 32.4668 81.3063 32.4668C81.8349 32.4668 82.2975 32.5557 82.6939 32.7334C83.0904 32.9111 83.4186 33.1618 83.6783 33.4854C83.9426 33.8044 84.1386 34.1849 84.2662 34.627C84.3984 35.069 84.4645 35.5566 84.4645 36.0898V36.7939H78.7496V35.6113H82.8375V35.4814C82.8284 35.1852 82.7691 34.9072 82.6598 34.6475C82.555 34.3877 82.3932 34.1781 82.1744 34.0186C81.9557 33.859 81.664 33.7793 81.2994 33.7793C81.026 33.7793 80.7822 33.8385 80.568 33.957C80.3583 34.071 80.1829 34.2373 80.0416 34.4561C79.9003 34.6748 79.791 34.9391 79.7135 35.249C79.6406 35.5544 79.6041 35.8984 79.6041 36.2812V36.5547C79.6041 36.8783 79.6474 37.179 79.734 37.457C79.8251 37.7305 79.9573 37.9697 80.1305 38.1748C80.3036 38.3799 80.5133 38.5417 80.7594 38.6602C81.0055 38.7741 81.2857 38.8311 81.6002 38.8311C81.9967 38.8311 82.3499 38.7513 82.6598 38.5918C82.9697 38.4323 83.2385 38.2067 83.4664 37.915L84.3346 38.7559C84.1751 38.9883 83.9677 39.2116 83.7125 39.4258C83.4573 39.6354 83.1451 39.8063 82.776 39.9385C82.4114 40.0706 81.9876 40.1367 81.5045 40.1367ZM87.4971 34.1074V40H85.8496V32.6035H87.4014L87.4971 34.1074ZM87.2305 36.0283L86.6699 36.0215C86.6699 35.5111 86.7337 35.0394 86.8613 34.6064C86.9889 34.1735 87.1758 33.7975 87.4219 33.4785C87.668 33.1549 87.9733 32.9066 88.3379 32.7334C88.707 32.5557 89.1331 32.4668 89.6162 32.4668C89.9535 32.4668 90.2611 32.5169 90.5391 32.6172C90.8216 32.7129 91.0654 32.8656 91.2705 33.0752C91.4801 33.2848 91.6397 33.5537 91.749 33.8818C91.863 34.21 91.9199 34.6064 91.9199 35.0713V40H90.2725V35.2148C90.2725 34.8548 90.2178 34.5723 90.1084 34.3672C90.0036 34.1621 89.8509 34.0163 89.6504 33.9297C89.4544 33.8385 89.2197 33.793 88.9463 33.793C88.6364 33.793 88.3721 33.8522 88.1533 33.9707C87.9391 34.0892 87.7637 34.251 87.627 34.4561C87.4902 34.6611 87.39 34.8981 87.3262 35.167C87.2624 35.4359 87.2305 35.723 87.2305 36.0283ZM91.8174 35.5908L91.0449 35.7617C91.0449 35.3151 91.1064 34.8936 91.2295 34.4971C91.3571 34.096 91.5417 33.7451 91.7832 33.4443C92.0293 33.139 92.3324 32.8997 92.6924 32.7266C93.0524 32.5534 93.4648 32.4668 93.9297 32.4668C94.3079 32.4668 94.6452 32.5192 94.9414 32.624C95.2422 32.7243 95.4974 32.8838 95.707 33.1025C95.9167 33.3213 96.0762 33.6061 96.1856 33.957C96.2949 34.3034 96.3496 34.7227 96.3496 35.2148V40H94.6953V35.208C94.6953 34.8343 94.6406 34.5449 94.5313 34.3398C94.4264 34.1348 94.276 33.9935 94.0801 33.916C93.8841 33.834 93.6494 33.793 93.376 33.793C93.1208 33.793 92.8952 33.8408 92.6992 33.9365C92.5078 34.0277 92.346 34.1576 92.2139 34.3262C92.0817 34.4902 91.9814 34.6794 91.9131 34.8936C91.8493 35.1077 91.8174 35.3402 91.8174 35.5908ZM99.9086 32.6035V40H98.2543V32.6035H99.9086ZM98.1449 30.6621C98.1449 30.4115 98.227 30.2041 98.391 30.04C98.5596 29.8714 98.7921 29.7871 99.0883 29.7871C99.38 29.7871 99.6101 29.8714 99.7787 30.04C99.9473 30.2041 100.032 30.4115 100.032 30.6621C100.032 30.9082 99.9473 31.1133 99.7787 31.2773C99.6101 31.4414 99.38 31.5234 99.0883 31.5234C98.7921 31.5234 98.5596 31.4414 98.391 31.2773C98.227 31.1133 98.1449 30.9082 98.1449 30.6621ZM103.447 34.1826V40H101.8V32.6035H103.351L103.447 34.1826ZM103.153 36.0283L102.62 36.0215C102.624 35.4974 102.697 35.0166 102.839 34.5791C102.985 34.1416 103.185 33.7656 103.44 33.4512C103.7 33.1367 104.01 32.8952 104.37 32.7266C104.73 32.5534 105.131 32.4668 105.573 32.4668C105.929 32.4668 106.25 32.5169 106.537 32.6172C106.829 32.7129 107.077 32.8701 107.282 33.0889C107.492 33.3076 107.651 33.5924 107.761 33.9434C107.87 34.2897 107.925 34.7158 107.925 35.2217V40H106.27V35.2148C106.27 34.8594 106.218 34.5791 106.113 34.374C106.013 34.1644 105.865 34.0163 105.669 33.9297C105.477 33.8385 105.238 33.793 104.951 33.793C104.668 33.793 104.415 33.8522 104.192 33.9707C103.969 34.0892 103.78 34.251 103.625 34.4561C103.474 34.6611 103.358 34.8981 103.276 35.167C103.194 35.4359 103.153 35.723 103.153 36.0283ZM113.876 38.5166V34.9893C113.876 34.7249 113.828 34.4971 113.733 34.3057C113.637 34.1143 113.491 33.9661 113.295 33.8613C113.104 33.7565 112.862 33.7041 112.571 33.7041C112.302 33.7041 112.069 33.7497 111.873 33.8408C111.677 33.932 111.525 34.055 111.415 34.21C111.306 34.3649 111.251 34.5404 111.251 34.7363H109.611C109.611 34.4447 109.681 34.1621 109.822 33.8887C109.964 33.6152 110.169 33.3714 110.438 33.1572C110.707 32.943 111.028 32.7744 111.402 32.6514C111.775 32.5283 112.195 32.4668 112.659 32.4668C113.215 32.4668 113.708 32.5602 114.136 32.7471C114.569 32.9339 114.908 33.2165 115.154 33.5947C115.405 33.9684 115.53 34.4378 115.53 35.0029V38.291C115.53 38.6283 115.553 38.9313 115.599 39.2002C115.649 39.4645 115.72 39.6947 115.811 39.8906V40H114.122C114.045 39.8223 113.983 39.5967 113.938 39.3232C113.897 39.0452 113.876 38.7764 113.876 38.5166ZM114.115 35.502L114.129 36.5205H112.946C112.641 36.5205 112.372 36.5501 112.14 36.6094C111.907 36.6641 111.714 36.7461 111.559 36.8555C111.404 36.9648 111.288 37.097 111.21 37.252C111.133 37.4069 111.094 37.5824 111.094 37.7783C111.094 37.9743 111.14 38.1543 111.231 38.3184C111.322 38.4779 111.454 38.6032 111.627 38.6943C111.805 38.7855 112.019 38.8311 112.27 38.8311C112.607 38.8311 112.901 38.7627 113.152 38.626C113.407 38.4847 113.607 38.3138 113.753 38.1133C113.899 37.9082 113.976 37.7145 113.986 37.5322L114.519 38.2637C114.464 38.4505 114.371 38.651 114.238 38.8652C114.106 39.0794 113.933 39.2845 113.719 39.4805C113.509 39.6719 113.256 39.8291 112.96 39.9521C112.668 40.0752 112.331 40.1367 111.948 40.1367C111.465 40.1367 111.035 40.041 110.656 39.8496C110.278 39.6536 109.982 39.3916 109.768 39.0635C109.554 38.7308 109.446 38.3548 109.446 37.9355C109.446 37.5436 109.519 37.1973 109.665 36.8965C109.816 36.5911 110.034 36.3359 110.321 36.1309C110.613 35.9258 110.969 35.7708 111.388 35.666C111.807 35.5566 112.286 35.502 112.823 35.502H114.115ZM119.007 34.0117V40H117.36V32.6035H118.932L119.007 34.0117ZM121.27 32.5557L121.256 34.0869C121.156 34.0687 121.047 34.055 120.928 34.0459C120.814 34.0368 120.7 34.0322 120.587 34.0322C120.304 34.0322 120.056 34.0732 119.841 34.1553C119.627 34.2327 119.447 34.3467 119.301 34.4971C119.16 34.6429 119.051 34.8206 118.973 35.0303C118.896 35.2399 118.85 35.4746 118.837 35.7344L118.461 35.7617C118.461 35.2969 118.506 34.8662 118.597 34.4697C118.688 34.0732 118.825 33.7246 119.007 33.4238C119.194 33.123 119.427 32.8883 119.705 32.7197C119.987 32.5511 120.313 32.4668 120.682 32.4668C120.782 32.4668 120.89 32.4759 121.004 32.4941C121.122 32.5124 121.211 32.5329 121.27 32.5557ZM129.933 36.2881H127.342V34.9277H129.933C130.384 34.9277 130.749 34.8548 131.027 34.709C131.305 34.5632 131.508 34.3626 131.635 34.1074C131.767 33.8477 131.833 33.5514 131.833 33.2188C131.833 32.9043 131.767 32.6104 131.635 32.3369C131.508 32.0589 131.305 31.8356 131.027 31.667C130.749 31.4984 130.384 31.4141 129.933 31.4141H127.869V40H126.153V30.0469H129.933C130.703 30.0469 131.357 30.1836 131.895 30.457C132.437 30.7259 132.85 31.0996 133.132 31.5781C133.415 32.0521 133.556 32.5944 133.556 33.2051C133.556 33.8477 133.415 34.3991 133.132 34.8594C132.85 35.3197 132.437 35.6729 131.895 35.9189C131.357 36.165 130.703 36.2881 129.933 36.2881ZM136.684 34.0117V40H135.037V32.6035H136.609L136.684 34.0117ZM138.947 32.5557L138.933 34.0869C138.833 34.0687 138.724 34.055 138.605 34.0459C138.491 34.0368 138.377 34.0322 138.263 34.0322C137.981 34.0322 137.733 34.0732 137.518 34.1553C137.304 34.2327 137.124 34.3467 136.978 34.4971C136.837 34.6429 136.728 34.8206 136.65 35.0303C136.573 35.2399 136.527 35.4746 136.513 35.7344L136.138 35.7617C136.138 35.2969 136.183 34.8662 136.274 34.4697C136.365 34.0732 136.502 33.7246 136.684 33.4238C136.871 33.123 137.104 32.8883 137.382 32.7197C137.664 32.5511 137.99 32.4668 138.359 32.4668C138.459 32.4668 138.567 32.4759 138.68 32.4941C138.799 32.5124 138.888 32.5329 138.947 32.5557ZM143.203 40.1367C142.656 40.1367 142.162 40.0479 141.72 39.8701C141.282 39.6878 140.909 39.4349 140.599 39.1113C140.293 38.7878 140.059 38.4072 139.895 37.9697C139.731 37.5322 139.649 37.0605 139.649 36.5547V36.2812C139.649 35.7025 139.733 35.1784 139.902 34.709C140.07 34.2396 140.305 33.8385 140.606 33.5059C140.906 33.1686 141.262 32.9111 141.672 32.7334C142.082 32.5557 142.527 32.4668 143.005 32.4668C143.534 32.4668 143.996 32.5557 144.393 32.7334C144.789 32.9111 145.117 33.1618 145.377 33.4854C145.641 33.8044 145.837 34.1849 145.965 34.627C146.097 35.069 146.163 35.5566 146.163 36.0898V36.7939H140.448V35.6113H144.536V35.4814C144.527 35.1852 144.468 34.9072 144.359 34.6475C144.254 34.3877 144.092 34.1781 143.873 34.0186C143.654 33.859 143.363 33.7793 142.998 33.7793C142.725 33.7793 142.481 33.8385 142.267 33.957C142.057 34.071 141.882 34.2373 141.74 34.4561C141.599 34.6748 141.49 34.9391 141.412 35.249C141.339 35.5544 141.303 35.8984 141.303 36.2812V36.5547C141.303 36.8783 141.346 37.179 141.433 37.457C141.524 37.7305 141.656 37.9697 141.829 38.1748C142.002 38.3799 142.212 38.5417 142.458 38.6602C142.704 38.7741 142.985 38.8311 143.299 38.8311C143.696 38.8311 144.049 38.7513 144.359 38.5918C144.668 38.4323 144.937 38.2067 145.165 37.915L146.033 38.7559C145.874 38.9883 145.667 39.2116 145.411 39.4258C145.156 39.6354 144.844 39.8063 144.475 39.9385C144.11 40.0706 143.686 40.1367 143.203 40.1367ZM151.698 37.9971C151.698 37.833 151.657 37.6849 151.575 37.5527C151.493 37.416 151.336 37.293 151.103 37.1836C150.875 37.0742 150.538 36.974 150.091 36.8828C149.699 36.7962 149.339 36.6937 149.011 36.5752C148.688 36.4521 148.41 36.304 148.177 36.1309C147.945 35.9577 147.765 35.7526 147.637 35.5156C147.51 35.2786 147.446 35.0052 147.446 34.6953C147.446 34.3945 147.512 34.1097 147.644 33.8408C147.776 33.5719 147.965 33.335 148.212 33.1299C148.458 32.9248 148.756 32.763 149.107 32.6445C149.463 32.526 149.859 32.4668 150.296 32.4668C150.916 32.4668 151.447 32.5716 151.889 32.7812C152.336 32.9863 152.678 33.2666 152.915 33.6221C153.152 33.973 153.27 34.3695 153.27 34.8115H151.623C151.623 34.6156 151.573 34.4333 151.472 34.2646C151.377 34.0915 151.231 33.9525 151.035 33.8477C150.839 33.7383 150.593 33.6836 150.296 33.6836C150.014 33.6836 149.779 33.7292 149.592 33.8203C149.41 33.9069 149.273 34.0208 149.182 34.1621C149.096 34.3034 149.052 34.4583 149.052 34.627C149.052 34.75 149.075 34.8617 149.121 34.9619C149.171 35.0576 149.253 35.1465 149.367 35.2285C149.481 35.306 149.636 35.3789 149.832 35.4473C150.032 35.5156 150.283 35.5817 150.584 35.6455C151.149 35.764 151.634 35.9167 152.04 36.1035C152.45 36.2858 152.764 36.5228 152.983 36.8145C153.202 37.1016 153.311 37.4661 153.311 37.9082C153.311 38.2363 153.24 38.5371 153.099 38.8105C152.963 39.0794 152.762 39.3141 152.498 39.5146C152.233 39.7106 151.917 39.8633 151.547 39.9727C151.183 40.082 150.773 40.1367 150.317 40.1367C149.647 40.1367 149.08 40.0182 148.615 39.7812C148.15 39.5397 147.797 39.2321 147.555 38.8584C147.318 38.4801 147.2 38.0882 147.2 37.6826H148.793C148.811 37.988 148.895 38.2318 149.046 38.4141C149.2 38.5918 149.392 38.7217 149.62 38.8037C149.852 38.8812 150.091 38.9199 150.338 38.9199C150.634 38.9199 150.882 38.8812 151.083 38.8037C151.283 38.7217 151.436 38.6123 151.541 38.4756C151.645 38.3343 151.698 38.1748 151.698 37.9971ZM158.114 40.1367C157.567 40.1367 157.073 40.0479 156.631 39.8701C156.193 39.6878 155.82 39.4349 155.51 39.1113C155.204 38.7878 154.97 38.4072 154.806 37.9697C154.642 37.5322 154.56 37.0605 154.56 36.5547V36.2812C154.56 35.7025 154.644 35.1784 154.812 34.709C154.981 34.2396 155.216 33.8385 155.517 33.5059C155.817 33.1686 156.173 32.9111 156.583 32.7334C156.993 32.5557 157.438 32.4668 157.916 32.4668C158.445 32.4668 158.907 32.5557 159.304 32.7334C159.7 32.9111 160.028 33.1618 160.288 33.4854C160.552 33.8044 160.748 34.1849 160.876 34.627C161.008 35.069 161.074 35.5566 161.074 36.0898V36.7939H155.359V35.6113H159.447V35.4814C159.438 35.1852 159.379 34.9072 159.27 34.6475C159.165 34.3877 159.003 34.1781 158.784 34.0186C158.565 33.859 158.274 33.7793 157.909 33.7793C157.636 33.7793 157.392 33.8385 157.178 33.957C156.968 34.071 156.793 34.2373 156.651 34.4561C156.51 34.6748 156.401 34.9391 156.323 35.249C156.25 35.5544 156.214 35.8984 156.214 36.2812V36.5547C156.214 36.8783 156.257 37.179 156.344 37.457C156.435 37.7305 156.567 37.9697 156.74 38.1748C156.913 38.3799 157.123 38.5417 157.369 38.6602C157.615 38.7741 157.896 38.8311 158.21 38.8311C158.606 38.8311 158.96 38.7513 159.27 38.5918C159.579 38.4323 159.848 38.2067 160.076 37.915L160.944 38.7559C160.785 38.9883 160.577 39.2116 160.322 39.4258C160.067 39.6354 159.755 39.8063 159.386 39.9385C159.021 40.0706 158.597 40.1367 158.114 40.1367ZM164.093 34.1826V40H162.446V32.6035H163.997L164.093 34.1826ZM163.799 36.0283L163.266 36.0215C163.271 35.4974 163.343 35.0166 163.485 34.5791C163.631 34.1416 163.831 33.7656 164.086 33.4512C164.346 33.1367 164.656 32.8952 165.016 32.7266C165.376 32.5534 165.777 32.4668 166.219 32.4668C166.575 32.4668 166.896 32.5169 167.183 32.6172C167.475 32.7129 167.723 32.8701 167.928 33.0889C168.138 33.3076 168.297 33.5924 168.407 33.9434C168.516 34.2897 168.571 34.7158 168.571 35.2217V40H166.916V35.2148C166.916 34.8594 166.864 34.5791 166.759 34.374C166.659 34.1644 166.511 34.0163 166.315 33.9297C166.123 33.8385 165.884 33.793 165.597 33.793C165.315 33.793 165.062 33.8522 164.838 33.9707C164.615 34.0892 164.426 34.251 164.271 34.4561C164.121 34.6611 164.004 34.8981 163.922 35.167C163.84 35.4359 163.799 35.723 163.799 36.0283ZM173.743 32.6035V33.8066H169.573V32.6035H173.743ZM170.776 30.792H172.424V37.9561C172.424 38.1839 172.456 38.3594 172.519 38.4824C172.588 38.6009 172.681 38.6807 172.8 38.7217C172.918 38.7627 173.057 38.7832 173.217 38.7832C173.331 38.7832 173.44 38.7764 173.545 38.7627C173.65 38.749 173.734 38.7354 173.798 38.7217L173.804 39.9795C173.668 40.0205 173.508 40.057 173.326 40.0889C173.148 40.1208 172.943 40.1367 172.711 40.1367C172.332 40.1367 171.998 40.0706 171.706 39.9385C171.414 39.8018 171.186 39.5807 171.022 39.2754C170.858 38.9701 170.776 38.5645 170.776 38.0586V30.792ZM179.284 38.5166V34.9893C179.284 34.7249 179.237 34.4971 179.141 34.3057C179.045 34.1143 178.899 33.9661 178.703 33.8613C178.512 33.7565 178.27 33.7041 177.979 33.7041C177.71 33.7041 177.477 33.7497 177.281 33.8408C177.085 33.932 176.933 34.055 176.823 34.21C176.714 34.3649 176.659 34.5404 176.659 34.7363H175.019C175.019 34.4447 175.089 34.1621 175.231 33.8887C175.372 33.6152 175.577 33.3714 175.846 33.1572C176.115 32.943 176.436 32.7744 176.81 32.6514C177.183 32.5283 177.603 32.4668 178.068 32.4668C178.624 32.4668 179.116 32.5602 179.544 32.7471C179.977 32.9339 180.317 33.2165 180.563 33.5947C180.813 33.9684 180.939 34.4378 180.939 35.0029V38.291C180.939 38.6283 180.961 38.9313 181.007 39.2002C181.057 39.4645 181.128 39.6947 181.219 39.8906V40H179.53C179.453 39.8223 179.391 39.5967 179.346 39.3232C179.305 39.0452 179.284 38.7764 179.284 38.5166ZM179.524 35.502L179.537 36.5205H178.355C178.049 36.5205 177.78 36.5501 177.548 36.6094C177.316 36.6641 177.122 36.7461 176.967 36.8555C176.812 36.9648 176.696 37.097 176.618 37.252C176.541 37.4069 176.502 37.5824 176.502 37.7783C176.502 37.9743 176.548 38.1543 176.639 38.3184C176.73 38.4779 176.862 38.6032 177.035 38.6943C177.213 38.7855 177.427 38.8311 177.678 38.8311C178.015 38.8311 178.309 38.7627 178.56 38.626C178.815 38.4847 179.015 38.3138 179.161 38.1133C179.307 37.9082 179.385 37.7145 179.394 37.5322L179.927 38.2637C179.872 38.4505 179.779 38.651 179.647 38.8652C179.515 39.0794 179.341 39.2845 179.127 39.4805C178.918 39.6719 178.665 39.8291 178.368 39.9521C178.077 40.0752 177.739 40.1367 177.357 40.1367C176.874 40.1367 176.443 40.041 176.065 39.8496C175.686 39.6536 175.39 39.3916 175.176 39.0635C174.962 38.7308 174.855 38.3548 174.855 37.9355C174.855 37.5436 174.928 37.1973 175.073 36.8965C175.224 36.5911 175.443 36.3359 175.73 36.1309C176.021 35.9258 176.377 35.7708 176.796 35.666C177.215 35.5566 177.694 35.502 178.232 35.502H179.524ZM186.152 32.6035V33.8066H181.982V32.6035H186.152ZM183.185 30.792H184.833V37.9561C184.833 38.1839 184.865 38.3594 184.928 38.4824C184.997 38.6009 185.09 38.6807 185.209 38.7217C185.327 38.7627 185.466 38.7832 185.626 38.7832C185.74 38.7832 185.849 38.7764 185.954 38.7627C186.059 38.749 186.143 38.7354 186.207 38.7217L186.213 39.9795C186.077 40.0205 185.917 40.057 185.735 40.0889C185.557 40.1208 185.352 40.1367 185.12 40.1367C184.741 40.1367 184.407 40.0706 184.115 39.9385C183.823 39.8018 183.595 39.5807 183.431 39.2754C183.267 38.9701 183.185 38.5645 183.185 38.0586V30.792ZM189.287 32.6035V40H187.633V32.6035H189.287ZM187.523 30.6621C187.523 30.4115 187.605 30.2041 187.77 30.04C187.938 29.8714 188.171 29.7871 188.467 29.7871C188.758 29.7871 188.989 29.8714 189.157 30.04C189.326 30.2041 189.41 30.4115 189.41 30.6621C189.41 30.9082 189.326 31.1133 189.157 31.2773C188.989 31.4414 188.758 31.5234 188.467 31.5234C188.171 31.5234 187.938 31.4414 187.77 31.2773C187.605 31.1133 187.523 30.9082 187.523 30.6621ZM190.877 36.3838V36.2266C190.877 35.6934 190.955 35.1989 191.11 34.7432C191.265 34.2829 191.488 33.8841 191.78 33.5469C192.076 33.2051 192.436 32.9408 192.86 32.7539C193.288 32.5625 193.771 32.4668 194.309 32.4668C194.851 32.4668 195.334 32.5625 195.758 32.7539C196.187 32.9408 196.549 33.2051 196.845 33.5469C197.141 33.8841 197.367 34.2829 197.522 34.7432C197.677 35.1989 197.754 35.6934 197.754 36.2266V36.3838C197.754 36.917 197.677 37.4115 197.522 37.8672C197.367 38.3229 197.141 38.7217 196.845 39.0635C196.549 39.4007 196.189 39.665 195.765 39.8564C195.341 40.0433 194.86 40.1367 194.323 40.1367C193.78 40.1367 193.295 40.0433 192.867 39.8564C192.443 39.665 192.083 39.4007 191.787 39.0635C191.49 38.7217 191.265 38.3229 191.11 37.8672C190.955 37.4115 190.877 36.917 190.877 36.3838ZM192.525 36.2266V36.3838C192.525 36.7165 192.559 37.0309 192.627 37.3271C192.696 37.6234 192.803 37.8831 192.949 38.1064C193.094 38.3298 193.281 38.5052 193.509 38.6328C193.737 38.7604 194.008 38.8242 194.323 38.8242C194.628 38.8242 194.892 38.7604 195.116 38.6328C195.343 38.5052 195.53 38.3298 195.676 38.1064C195.822 37.8831 195.929 37.6234 195.997 37.3271C196.07 37.0309 196.107 36.7165 196.107 36.3838V36.2266C196.107 35.8984 196.07 35.5885 195.997 35.2969C195.929 35.0007 195.82 34.7386 195.669 34.5107C195.524 34.2829 195.337 34.1051 195.109 33.9775C194.885 33.8454 194.619 33.7793 194.309 33.7793C193.999 33.7793 193.73 33.8454 193.502 33.9775C193.279 34.1051 193.094 34.2829 192.949 34.5107C192.803 34.7386 192.696 35.0007 192.627 35.2969C192.559 35.5885 192.525 35.8984 192.525 36.2266ZM200.869 34.1826V40H199.221V32.6035H200.773L200.869 34.1826ZM200.575 36.0283L200.042 36.0215C200.046 35.4974 200.119 35.0166 200.261 34.5791C200.406 34.1416 200.607 33.7656 200.862 33.4512C201.122 33.1367 201.432 32.8952 201.792 32.7266C202.152 32.5534 202.553 32.4668 202.995 32.4668C203.35 32.4668 203.672 32.5169 203.959 32.6172C204.25 32.7129 204.499 32.8701 204.704 33.0889C204.914 33.3076 205.073 33.5924 205.182 33.9434C205.292 34.2897 205.346 34.7158 205.346 35.2217V40H203.692V35.2148C203.692 34.8594 203.64 34.5791 203.535 34.374C203.435 34.1644 203.287 34.0163 203.091 33.9297C202.899 33.8385 202.66 33.793 202.373 33.793C202.09 33.793 201.837 33.8522 201.614 33.9707C201.391 34.0892 201.202 34.251 201.047 34.4561C200.896 34.6611 200.78 34.8981 200.698 35.167C200.616 35.4359 200.575 35.723 200.575 36.0283Z" fill="#E2FAFC"/>
</g>
<path d="M47 40C47.5304 40 48.0391 39.7893 48.4142 39.4142C48.7893 39.0391 49 38.5304 49 38V27C49 26.4696 48.7893 25.9609 48.4142 25.5858C48.0391 25.2107 47.5304 25 47 25H36.46C36.81 25.61 37 26.3 37 27H47V38H38V40M42 30V32H36V45H34V39H32V45H30V37H28.5V32C28.5 31.4696 28.7107 30.9609 29.0858 30.5858C29.4609 30.2107 29.9696 30 30.5 30H42ZM35 27C35 27.5304 34.7893 28.0391 34.4142 28.4142C34.0391 28.7893 33.5304 29 33 29C32.4696 29 31.9609 28.7893 31.5858 28.4142C31.2107 28.0391 31 27.5304 31 27C31 26.4696 31.2107 25.9609 31.5858 25.5858C31.9609 25.2107 32.4696 25 33 25C33.5304 25 34.0391 25.2107 34.4142 25.5858C34.7893 25.9609 35 26.4696 35 27Z" fill="#E2FAFC"/>
<defs>
<filter id="filter0_dd_103_3" x="0" y="0" width="243" height="78" filterUnits="userSpaceOnUse" color-interpolation-filters="sRGB">
<feFlood flood-opacity="0" result="BackgroundImageFix"/>
<feColorMatrix in="SourceAlpha" type="matrix" values="0 0 0 0 0 0 0 0 0 0 0 0 0 0 0 0 0 0 127 0" result="hardAlpha"/>
<feOffset dy="1"/>
<feGaussianBlur stdDeviation="1.5"/>
<feColorMatrix type="matrix" values="0 0 0 0 0 0 0 0 0 0 0 0 0 0 0 0 0 0 0.3 0"/>
<feBlend mode="normal" in2="BackgroundImageFix" result="effect1_dropShadow_103_3"/>
<feColorMatrix in="SourceAlpha" type="matrix" values="0 0 0 0 0 0 0 0 0 0 0 0 0 0 0 0 0 0 127 0" result="hardAlpha"/>
<feMorphology radius="3" operator="dilate" in="SourceAlpha" result="effect2_dropShadow_103_3"/>
<feOffset dy="4"/>
<feGaussianBlur stdDeviation="4"/>
<feColorMatrix type="matrix" values="0 0 0 0 0 0 0 0 0 0 0 0 0 0 0 0 0 0 0.15 0"/>
<feBlend mode="normal" in2="effect1_dropShadow_103_3" result="effect2_dropShadow_103_3"/>
<feBlend mode="normal" in="SourceGraphic" in2="effect2_dropShadow_103_3" result="shape"/>
</filter>
</defs>
</svg>
